<svg width="0" height="0" class="hidden">
  <!--  -->
  <symbol width="64" height="62" viewBox="0 0 64 62" fill="none" xmlns="http://www.w3.org/2000/svg" id="logo">
    <circle cx="32.5366" cy="31" r="30.5" fill="white" stroke="#2E2E33"/>
    <path d="M23.2695 37.3907L24.3026 35.733L24.5015 34.2939L24.3574 32.9677L25.6356 33.6791L27.0388 34.7961L27.8939 36.1059V37.2487L27.0614 38.0649H24.9327L23.2695 37.3907Z" fill="black"/>
    <path d="M32.0221 31.8087L30.5111 31.085L28.5715 30.4997L26.5264 30.0645L24.7159 29.9836L23.5735 30.1592L23.2112 31.1139L21.8733 30.6009L23.2137 29.7649L24.6446 29.4548L26.5882 29.2963L28.3654 29.4827L29.6162 29.6898L28.5683 28.8521L27.0566 28.2454L26.0624 28.0182L24.5529 27.9506L22.884 28.267L21.4233 28.9709L20.6069 29.8362L20.3575 30.5534L20.3261 30.9979L19.8844 31.5051L19.509 32.1824L19.3714 32.9129L19.4987 33.7425L20.1436 34.7528L20.4067 33.8628L20.7623 33.1881L21.3 32.7865L22.1123 32.4814L23.1906 32.4761L24.4135 32.6276L25.7505 33.1411L26.7567 33.7056L27.7448 34.413L28.5323 35.1073L29.0504 36.2705L30.6922 34.5627L31.5753 33.1072L32.0221 31.8087Z" fill="black"/>
    <path d="M32.6534 7.27382L35.2328 8.58641L38.0102 10.6702L40.0942 13.116L40.099 13.1211L41.0464 15.7086L41.4655 18.1615L41.2865 22.4914L41.2857 22.4965L40.1622 26.1926L38.2095 29.6407L35.8033 32.7139L32.5677 35.373L28.1267 38.0649L31.6611 34.9935L34.1384 31.8036L35.6122 28.9831L36.4953 25.8298L36.9428 22.4033L36.536 18.9171L35.5609 15.4451L33.6901 12.0551L31.4443 8.79458L28.7576 5.93515L32.6534 7.27382Z" fill="black"/>
    <path d="M33.5778 35.6582L35.6375 34.3094L38.3465 32.294L40.1046 30.2537L41.7029 27.7247L42.7993 25.79L43.527 23.1501L43.737 20.5691L43.9695 17.1738L45.2437 19.7179L45.9392 21.6522L46.1055 23.9399L45.6226 26.4345L45.6213 26.438L44.549 28.9386L42.8261 31.1283L39.997 33.5199L36.7627 35.3566L34.3298 36.4931L31.667 37.4481L29.5441 38.0651L31.277 37.033L33.5778 35.6582Z" fill="black"/>
    <path d="M38.5465 35.8761L40.9554 34.7606L42.8928 33.5947L44.5753 32.2507L46.0042 30.5271L47.6289 28.3514L47.3687 31.0431L46.6485 32.9456L45.6207 34.4618L45.6165 34.4676L43.8046 35.7209L41.4178 36.4959L38.9467 36.9881L35.8605 37.59L31.5757 38.0651L35.7247 36.8861L38.5465 35.8761Z" fill="black"/>
    <path d="M13.642 48.7895V42.9713H17.1307V43.5963H14.3466V45.5622H16.8693V46.1872H14.3466V48.7895H13.642ZM19.6989 48.8804C19.3049 48.8804 18.9593 48.7866 18.6619 48.5991C18.3665 48.4116 18.1354 48.1493 17.9688 47.8122C17.804 47.4751 17.7216 47.0812 17.7216 46.6304C17.7216 46.1759 17.804 45.7791 17.9688 45.4401C18.1354 45.101 18.3665 44.8378 18.6619 44.6503C18.9593 44.4628 19.3049 44.369 19.6989 44.369C20.0928 44.369 20.4375 44.4628 20.733 44.6503C21.0303 44.8378 21.2614 45.101 21.4261 45.4401C21.5928 45.7791 21.6761 46.1759 21.6761 46.6304C21.6761 47.0812 21.5928 47.4751 21.4261 47.8122C21.2614 48.1493 21.0303 48.4116 20.733 48.5991C20.4375 48.7866 20.0928 48.8804 19.6989 48.8804ZM19.6989 48.2781C19.9981 48.2781 20.2443 48.2014 20.4375 48.048C20.6307 47.8946 20.7737 47.6929 20.8665 47.4429C20.9593 47.1929 21.0057 46.9221 21.0057 46.6304C21.0057 46.3387 20.9593 46.067 20.8665 45.8151C20.7737 45.5632 20.6307 45.3596 20.4375 45.2043C20.2443 45.049 19.9981 44.9713 19.6989 44.9713C19.3996 44.9713 19.1534 45.049 18.9602 45.2043C18.767 45.3596 18.6241 45.5632 18.5312 45.8151C18.4384 46.067 18.392 46.3387 18.392 46.6304C18.392 46.9221 18.4384 47.1929 18.5312 47.4429C18.6241 47.6929 18.767 47.8946 18.9602 48.048C19.1534 48.2014 19.3996 48.2781 19.6989 48.2781ZM24.4723 48.8804C24.0784 48.8804 23.7327 48.7866 23.4354 48.5991C23.1399 48.4116 22.9089 48.1493 22.7422 47.8122C22.5774 47.4751 22.495 47.0812 22.495 46.6304C22.495 46.1759 22.5774 45.7791 22.7422 45.4401C22.9089 45.101 23.1399 44.8378 23.4354 44.6503C23.7327 44.4628 24.0784 44.369 24.4723 44.369C24.8662 44.369 25.2109 44.4628 25.5064 44.6503C25.8037 44.8378 26.0348 45.101 26.1996 45.4401C26.3662 45.7791 26.4496 46.1759 26.4496 46.6304C26.4496 47.0812 26.3662 47.4751 26.1996 47.8122C26.0348 48.1493 25.8037 48.4116 25.5064 48.5991C25.2109 48.7866 24.8662 48.8804 24.4723 48.8804ZM24.4723 48.2781C24.7715 48.2781 25.0178 48.2014 25.2109 48.048C25.4041 47.8946 25.5471 47.6929 25.6399 47.4429C25.7327 47.1929 25.7791 46.9221 25.7791 46.6304C25.7791 46.3387 25.7327 46.067 25.6399 45.8151C25.5471 45.5632 25.4041 45.3596 25.2109 45.2043C25.0178 45.049 24.7715 44.9713 24.4723 44.9713C24.1731 44.9713 23.9268 45.049 23.7337 45.2043C23.5405 45.3596 23.3975 45.5632 23.3047 45.8151C23.2119 46.067 23.1655 46.3387 23.1655 46.6304C23.1655 46.9221 23.2119 47.1929 23.3047 47.4429C23.3975 47.6929 23.5405 47.8946 23.7337 48.048C23.9268 48.2014 24.1731 48.2781 24.4723 48.2781ZM29.1207 48.8804C28.7571 48.8804 28.4361 48.7885 28.1577 48.6048C27.8793 48.4192 27.6615 48.1579 27.5043 47.8207C27.3471 47.4817 27.2685 47.0812 27.2685 46.619C27.2685 46.1607 27.3471 45.763 27.5043 45.4259C27.6615 45.0887 27.8802 44.8283 28.1605 44.6446C28.4408 44.4609 28.7647 44.369 29.1321 44.369C29.4162 44.369 29.6406 44.4164 29.8054 44.5111C29.9721 44.6039 30.099 44.7099 30.1861 44.8293C30.2751 44.9467 30.3442 45.0433 30.3935 45.119H30.4503V42.9713H31.1207V48.7895H30.473V48.119H30.3935C30.3442 48.1986 30.2741 48.299 30.1832 48.4202C30.0923 48.5395 29.9626 48.6465 29.794 48.7412C29.6255 48.834 29.401 48.8804 29.1207 48.8804ZM29.2116 48.2781C29.4806 48.2781 29.7079 48.2081 29.8935 48.0679C30.0791 47.9259 30.2202 47.7298 30.3168 47.4798C30.4134 47.2279 30.4616 46.9372 30.4616 46.6077C30.4616 46.2819 30.4143 45.9969 30.3196 45.7526C30.2249 45.5063 30.0848 45.3151 29.8991 45.1787C29.7135 45.0404 29.4844 44.9713 29.2116 44.9713C28.9276 44.9713 28.6908 45.0442 28.5014 45.1901C28.3139 45.334 28.1728 45.53 28.0781 45.7781C27.9853 46.0243 27.9389 46.3009 27.9389 46.6077C27.9389 46.9183 27.9863 47.2005 28.081 47.4543C28.1776 47.7062 28.3196 47.9069 28.5071 48.0565C28.6965 48.2043 28.9313 48.2781 29.2116 48.2781ZM36.4645 48.8804C36.0554 48.8804 35.7031 48.7838 35.4077 48.5906C35.1122 48.3974 34.8849 48.1313 34.7259 47.7923C34.5668 47.4533 34.4872 47.066 34.4872 46.6304C34.4872 46.1872 34.5687 45.7961 34.7315 45.4571C34.8963 45.1162 35.1255 44.8501 35.419 44.6588C35.7145 44.4656 36.0592 44.369 36.4531 44.369C36.7599 44.369 37.0365 44.4259 37.2827 44.5395C37.5289 44.6531 37.7306 44.8122 37.8878 45.0168C38.045 45.2213 38.1425 45.4599 38.1804 45.7327H37.5099C37.4588 45.5338 37.3452 45.3577 37.169 45.2043C36.9948 45.049 36.7599 44.9713 36.4645 44.9713C36.2031 44.9713 35.974 45.0395 35.777 45.1759C35.5819 45.3103 35.4295 45.5007 35.3196 45.7469C35.2116 45.9912 35.1577 46.2781 35.1577 46.6077C35.1577 46.9448 35.2107 47.2384 35.3168 47.4884C35.4247 47.7384 35.5762 47.9325 35.7713 48.0707C35.9683 48.209 36.1993 48.2781 36.4645 48.2781C36.6387 48.2781 36.7969 48.2478 36.9389 48.1872C37.081 48.1266 37.2012 48.0395 37.2997 47.9259C37.3982 47.8122 37.4683 47.6759 37.5099 47.5168H38.1804C38.1425 47.7743 38.0488 48.0063 37.8991 48.2128C37.7514 48.4173 37.5554 48.5802 37.3111 48.7014C37.0687 48.8207 36.7865 48.8804 36.4645 48.8804ZM39.831 42.9713V48.7895H39.1605V42.9713H39.831ZM43.8089 47.0054V44.4259H44.4794V48.7895H43.8089V48.0509H43.7635C43.6612 48.2724 43.5021 48.4609 43.2862 48.6162C43.0703 48.7696 42.7976 48.8463 42.468 48.8463C42.1953 48.8463 41.9529 48.7866 41.7408 48.6673C41.5286 48.5461 41.362 48.3643 41.2408 48.1219C41.1196 47.8776 41.0589 47.5698 41.0589 47.1986V44.4259H41.7294V47.1531C41.7294 47.4713 41.8184 47.7251 41.9964 47.9145C42.1764 48.1039 42.4055 48.1986 42.6839 48.1986C42.8506 48.1986 43.0201 48.156 43.1925 48.0707C43.3667 47.9855 43.5125 47.8548 43.63 47.6787C43.7493 47.5026 43.8089 47.2781 43.8089 47.0054ZM45.7983 48.7895V42.9713H46.4688V45.119H46.5256C46.5748 45.0433 46.643 44.9467 46.7301 44.8293C46.8191 44.7099 46.946 44.6039 47.1108 44.5111C47.2775 44.4164 47.5028 44.369 47.7869 44.369C48.1544 44.369 48.4782 44.4609 48.7585 44.6446C49.0388 44.8283 49.2576 45.0887 49.4148 45.4259C49.572 45.763 49.6506 46.1607 49.6506 46.619C49.6506 47.0812 49.572 47.4817 49.4148 47.8207C49.2576 48.1579 49.0398 48.4192 48.7614 48.6048C48.483 48.7885 48.1619 48.8804 47.7983 48.8804C47.518 48.8804 47.2936 48.834 47.125 48.7412C46.9564 48.6465 46.8267 48.5395 46.7358 48.4202C46.6449 48.299 46.5748 48.1986 46.5256 48.119H46.446V48.7895H45.7983ZM46.4574 46.6077C46.4574 46.9372 46.5057 47.2279 46.6023 47.4798C46.6989 47.7298 46.84 47.9259 47.0256 48.0679C47.2112 48.2081 47.4384 48.2781 47.7074 48.2781C47.9877 48.2781 48.2216 48.2043 48.4091 48.0565C48.5985 47.9069 48.7405 47.7062 48.8352 47.4543C48.9318 47.2005 48.9801 46.9183 48.9801 46.6077C48.9801 46.3009 48.9328 46.0243 48.8381 45.7781C48.7453 45.53 48.6042 45.334 48.4148 45.1901C48.2273 45.0442 47.9915 44.9713 47.7074 44.9713C47.4347 44.9713 47.2055 45.0404 47.0199 45.1787C46.8343 45.3151 46.6941 45.5063 46.5994 45.7526C46.5047 45.9969 46.4574 46.2819 46.4574 46.6077Z" fill="#2E2E33"/>
  </symbol>
  <!--  -->
  <symbol width="49" height="49" viewBox="0 0 49 49" fill="none" xmlns="http://www.w3.org/2000/svg" id="logo-mob">
    <circle cx="24.6046" cy="24.3954" r="23.8954" fill="white" stroke="#2E2E33"/>
    <path d="M17.0676 30.7539L17.8806 29.4494L18.0371 28.3168L17.9237 27.2732L18.9296 27.833L20.0338 28.712L20.7067 29.7428V30.6422L20.0517 31.2844H18.3765L17.0676 30.7539Z" fill="black"/>
    <path d="M23.9554 26.3612L22.7664 25.7916L21.24 25.331L19.6306 24.9885L18.2058 24.9249L17.3069 25.063L17.0217 25.8144L15.9688 25.4106L17.0237 24.7528L18.1497 24.5087L19.6793 24.384L21.0778 24.5307L22.0621 24.6937L21.2375 24.0345L20.0478 23.557L19.2655 23.3782L18.0776 23.325L16.7643 23.574L15.6147 24.1279L14.9723 24.8089L14.776 25.3733L14.7513 25.7231L14.4037 26.1222L14.1083 26.6552L14 27.23L14.1002 27.8829L14.6077 28.678L14.8148 27.9776L15.0946 27.4466L15.5177 27.1306L16.157 26.8905L17.0055 26.8864L17.9679 27.0055L19.02 27.4097L19.8118 27.8539L20.5894 28.4106L21.2092 28.957L21.6168 29.8724L22.9088 28.5284L23.6039 27.383L23.9554 26.3612Z" fill="black"/>
    <path d="M24.4522 7.05346L26.4821 8.0864L28.6677 9.72621L30.3077 11.651L30.3115 11.6549L31.057 13.6912L31.3869 15.6215L31.246 19.0289L31.2454 19.0329L30.3612 21.9416L28.8246 24.6551L26.931 27.0735L24.3847 29.166L20.8899 31.2845L23.6713 28.8675L25.6208 26.3571L26.7806 24.1375L27.4756 21.6561L27.8277 18.9596L27.5076 16.2161L26.7403 13.4839L25.268 10.8161L23.5007 8.25022L21.3864 6L24.4522 7.05346Z" fill="black"/>
    <path d="M25.1797 29.3904L26.8005 28.3291L28.9324 26.743L30.3159 25.1374L31.5737 23.1472L32.4366 21.6248L33.0092 19.5472L33.1744 17.5162L33.3574 14.8442L34.3601 16.8463L34.9075 18.3685L35.0383 20.1688L34.6583 22.1319L34.6573 22.1347L33.8135 24.1025L32.4576 25.8257L30.2313 27.7078L27.686 29.1531L25.7715 30.0475L23.676 30.799L22.0054 31.2846L23.3691 30.4724L25.1797 29.3904Z" fill="black"/>
    <path d="M29.0897 29.562L30.9855 28.6842L32.5101 27.7666L33.8341 26.709L34.9586 25.3526L36.2371 23.6404L36.0324 25.7587L35.4656 27.2558L34.6568 28.449L34.6534 28.4536L33.2276 29.4398L31.3493 30.0497L29.4047 30.437L26.976 30.9107L23.6041 31.2846L26.8691 30.3568L29.0897 29.562Z" fill="black"/>
    <path d="M9.37429 39V33.9091H12.4268V34.456H9.99077V36.1761H12.1982V36.723H9.99077V39H9.37429ZM14.674 39.0795C14.3293 39.0795 14.0269 38.9975 13.7667 38.8335C13.5082 38.6694 13.306 38.4399 13.1602 38.1449C13.016 37.8499 12.9439 37.5052 12.9439 37.1108C12.9439 36.7131 13.016 36.3659 13.1602 36.0692C13.306 35.7726 13.5082 35.5423 13.7667 35.3782C14.0269 35.2141 14.3293 35.1321 14.674 35.1321C15.0187 35.1321 15.3203 35.2141 15.5788 35.3782C15.839 35.5423 16.0412 35.7726 16.1854 36.0692C16.3312 36.3659 16.4041 36.7131 16.4041 37.1108C16.4041 37.5052 16.3312 37.8499 16.1854 38.1449C16.0412 38.4399 15.839 38.6694 15.5788 38.8335C15.3203 38.9975 15.0187 39.0795 14.674 39.0795ZM14.674 38.5526C14.9358 38.5526 15.1513 38.4854 15.3203 38.3512C15.4893 38.217 15.6145 38.0405 15.6957 37.8217C15.7769 37.603 15.8175 37.366 15.8175 37.1108C15.8175 36.8556 15.7769 36.6178 15.6957 36.3974C15.6145 36.177 15.4893 35.9988 15.3203 35.8629C15.1513 35.727 14.9358 35.6591 14.674 35.6591C14.4122 35.6591 14.1967 35.727 14.0277 35.8629C13.8587 35.9988 13.7335 36.177 13.6523 36.3974C13.5711 36.6178 13.5305 36.8556 13.5305 37.1108C13.5305 37.366 13.5711 37.603 13.6523 37.8217C13.7335 38.0405 13.8587 38.217 14.0277 38.3512C14.1967 38.4854 14.4122 38.5526 14.674 38.5526ZM18.8508 39.0795C18.5061 39.0795 18.2036 38.9975 17.9434 38.8335C17.6849 38.6694 17.4827 38.4399 17.3369 38.1449C17.1927 37.8499 17.1206 37.5052 17.1206 37.1108C17.1206 36.7131 17.1927 36.3659 17.3369 36.0692C17.4827 35.7726 17.6849 35.5423 17.9434 35.3782C18.2036 35.2141 18.5061 35.1321 18.8508 35.1321C19.1955 35.1321 19.4971 35.2141 19.7556 35.3782C20.0158 35.5423 20.218 35.7726 20.3621 36.0692C20.508 36.3659 20.5809 36.7131 20.5809 37.1108C20.5809 37.5052 20.508 37.8499 20.3621 38.1449C20.218 38.4399 20.0158 38.6694 19.7556 38.8335C19.4971 38.9975 19.1955 39.0795 18.8508 39.0795ZM18.8508 38.5526C19.1126 38.5526 19.328 38.4854 19.4971 38.3512C19.6661 38.217 19.7912 38.0405 19.8724 37.8217C19.9536 37.603 19.9942 37.366 19.9942 37.1108C19.9942 36.8556 19.9536 36.6178 19.8724 36.3974C19.7912 36.177 19.6661 35.9988 19.4971 35.8629C19.328 35.727 19.1126 35.6591 18.8508 35.6591C18.5889 35.6591 18.3735 35.727 18.2045 35.8629C18.0354 35.9988 17.9103 36.177 17.8291 36.3974C17.7479 36.6178 17.7073 36.8556 17.7073 37.1108C17.7073 37.366 17.7479 37.603 17.8291 37.8217C17.9103 38.0405 18.0354 38.217 18.2045 38.3512C18.3735 38.4854 18.5889 38.5526 18.8508 38.5526ZM22.9181 39.0795C22.6 39.0795 22.3191 38.9992 22.0755 38.8384C21.8319 38.676 21.6413 38.4473 21.5037 38.1523C21.3662 37.8557 21.2974 37.5052 21.2974 37.1009C21.2974 36.6998 21.3662 36.3518 21.5037 36.0568C21.6413 35.7618 21.8327 35.534 22.0779 35.3732C22.3232 35.2125 22.6066 35.1321 22.9281 35.1321C23.1767 35.1321 23.373 35.1735 23.5172 35.2564C23.6631 35.3376 23.7741 35.4304 23.8503 35.5348C23.9282 35.6375 23.9887 35.7221 24.0318 35.7884H24.0815V33.9091H24.6681V39H24.1014V38.4134H24.0318C23.9887 38.483 23.9274 38.5708 23.8478 38.6768C23.7683 38.7812 23.6548 38.8749 23.5073 38.9577C23.3598 39.0389 23.1634 39.0795 22.9181 39.0795ZM22.9977 38.5526C23.233 38.5526 23.4319 38.4912 23.5943 38.3686C23.7567 38.2443 23.8801 38.0728 23.9647 37.854C24.0492 37.6336 24.0914 37.3793 24.0914 37.0909C24.0914 36.8059 24.05 36.5565 23.9672 36.3427C23.8843 36.1272 23.7617 35.9599 23.5993 35.8406C23.4368 35.7196 23.2363 35.6591 22.9977 35.6591C22.7491 35.6591 22.542 35.7229 22.3762 35.8505C22.2122 35.9764 22.0887 36.148 22.0059 36.3651C21.9247 36.5805 21.8841 36.8224 21.8841 37.0909C21.8841 37.3627 21.9255 37.6096 22.0083 37.8317C22.0929 38.0521 22.2172 38.2277 22.3812 38.3587C22.5469 38.4879 22.7524 38.5526 22.9977 38.5526ZM29.3439 39.0795C28.986 39.0795 28.6777 38.995 28.4192 38.826C28.1607 38.657 27.9618 38.4241 27.8226 38.1275C27.6834 37.8308 27.6138 37.492 27.6138 37.1108C27.6138 36.723 27.6851 36.3808 27.8276 36.0842C27.9718 35.7859 28.1723 35.553 28.4292 35.3857C28.6877 35.2166 28.9893 35.1321 29.334 35.1321C29.6025 35.1321 29.8444 35.1818 30.0598 35.2812C30.2753 35.3807 30.4518 35.5199 30.5893 35.6989C30.7269 35.8778 30.8122 36.0866 30.8453 36.3253H30.2587C30.214 36.1513 30.1145 35.9972 29.9604 35.8629C29.8079 35.727 29.6025 35.6591 29.3439 35.6591C29.1152 35.6591 28.9147 35.7187 28.7424 35.8381C28.5717 35.9557 28.4383 36.1223 28.3422 36.3377C28.2477 36.5515 28.2005 36.8026 28.2005 37.0909C28.2005 37.3859 28.2469 37.6428 28.3397 37.8615C28.4341 38.0803 28.5667 38.2501 28.7374 38.3711C28.9097 38.4921 29.1119 38.5526 29.3439 38.5526C29.4964 38.5526 29.6348 38.526 29.7591 38.473C29.8833 38.42 29.9886 38.3438 30.0748 38.2443C30.1609 38.1449 30.2222 38.0256 30.2587 37.8864H30.8453C30.8122 38.1117 30.7302 38.3147 30.5993 38.4954C30.47 38.6744 30.2985 38.8169 30.0847 38.9229C29.8726 39.0273 29.6257 39.0795 29.3439 39.0795ZM32.2896 33.9091V39H31.7029V33.9091H32.2896ZM35.7703 37.4389V35.1818H36.357V39H35.7703V38.3537H35.7306C35.6411 38.5476 35.5019 38.7125 35.3129 38.8484C35.124 38.9826 34.8854 39.0497 34.597 39.0497C34.3584 39.0497 34.1463 38.9975 33.9607 38.8931C33.7751 38.7871 33.6292 38.628 33.5232 38.4158C33.4171 38.2021 33.3641 37.9328 33.3641 37.608V35.1818H33.9507V37.5682C33.9507 37.8466 34.0286 38.0687 34.1844 38.2344C34.3418 38.4001 34.5423 38.483 34.786 38.483C34.9318 38.483 35.0801 38.4457 35.2309 38.3711C35.3834 38.2965 35.511 38.1822 35.6137 38.0281C35.7181 37.8739 35.7703 37.6776 35.7703 37.4389ZM37.511 39V33.9091H38.0977V35.7884H38.1474C38.1905 35.7221 38.2501 35.6375 38.3263 35.5348C38.4042 35.4304 38.5153 35.3376 38.6594 35.2564C38.8053 35.1735 39.0025 35.1321 39.2511 35.1321C39.5726 35.1321 39.8559 35.2125 40.1012 35.3732C40.3465 35.534 40.5379 35.7618 40.6754 36.0568C40.813 36.3518 40.8817 36.6998 40.8817 37.1009C40.8817 37.5052 40.813 37.8557 40.6754 38.1523C40.5379 38.4473 40.3473 38.676 40.1037 38.8384C39.8601 38.9992 39.5792 39.0795 39.261 39.0795C39.0157 39.0795 38.8194 39.0389 38.6719 38.9577C38.5244 38.8749 38.4109 38.7812 38.3313 38.6768C38.2518 38.5708 38.1905 38.483 38.1474 38.4134H38.0778V39H37.511ZM38.0877 37.0909C38.0877 37.3793 38.13 37.6336 38.2145 37.854C38.299 38.0728 38.4225 38.2443 38.5849 38.3686C38.7473 38.4912 38.9461 38.5526 39.1815 38.5526C39.4267 38.5526 39.6314 38.4879 39.7955 38.3587C39.9612 38.2277 40.0855 38.0521 40.1683 37.8317C40.2528 37.6096 40.2951 37.3627 40.2951 37.0909C40.2951 36.8224 40.2537 36.5805 40.1708 36.3651C40.0896 36.148 39.9661 35.9764 39.8004 35.8505C39.6364 35.7229 39.43 35.6591 39.1815 35.6591C38.9428 35.6591 38.7423 35.7196 38.5799 35.8406C38.4175 35.9599 38.2949 36.1272 38.212 36.3427C38.1291 36.5565 38.0877 36.8059 38.0877 37.0909Z" fill="#2E2E33"/>
  </symbol>
  <!--  -->
  <symbol width="20" height="20" viewBox="0 0 20 20" fill="none" xmlns="http://www.w3.org/2000/svg" id="search">
    <g clip-path="url(#clip0_76_216)"><path d="M8.068 0C3.79079 0 0.322754 3.46806 0.322754 7.74524C0.322754 12.0224 3.79079 15.4905 8.068 15.4905C9.71272 15.4905 11.2381 14.9774 12.4919 14.1036L18.3491 19.9599C18.402 20.0128 18.4876 20.0128 18.5377 19.9635L19.6412 18.8601C19.6922 18.8091 19.6877 18.7216 19.6376 18.6714L13.8568 12.8908C15.0742 11.5231 15.8132 9.7207 15.8132 7.7452C15.8132 3.46806 12.3452 0 8.068 0ZM8.068 14.5793C4.29379 14.5793 1.23395 11.5194 1.23395 7.74524C1.23395 3.97104 4.29376 0.911228 8.068 0.911228C11.8422 0.911228 14.902 3.97104 14.902 7.74524C14.902 11.5194 11.8422 14.5793 8.068 14.5793Z" fill="#2E2E33"/></g>
    <defs><clipPath id="clip0_76_216"><rect width="20" height="20" fill="white"/></clipPath></defs>
  </symbol>
  <!--  -->
  <symbol width="25" height="25" viewBox="0 0 25 25" fill="none" xmlns="http://www.w3.org/2000/svg" id="profile">
    <path d="M12.4611 13.876C15.9495 13.876 18.779 11.0465 18.779 7.55815C18.779 4.06978 15.9495 1.2597 12.4611 1.2597C8.97277 1.2597 6.14331 4.08916 6.14331 7.55815C6.14331 11.0271 8.97277 13.876 12.4611 13.876ZM12.4611 2.90699C15.0193 2.90699 17.1123 5.00001 17.1123 7.55815C17.1123 10.1163 15.0193 12.2093 12.4611 12.2093C9.903 12.2093 7.80998 10.1163 7.80998 7.55815C7.80998 5.00001 9.903 2.90699 12.4611 2.90699Z" fill="currentColor"/>
    <path d="M1.53097 23.7403H23.469C23.9341 23.7403 24.3023 23.3721 24.3023 22.907C24.3023 18.5465 20.7558 14.9806 16.3759 14.9806H8.62399C4.26352 14.9806 0.697632 18.5271 0.697632 22.907C0.697632 23.3721 1.06585 23.7403 1.53097 23.7403ZM8.62399 16.6473H16.3759C19.5542 16.6473 22.1705 19.0116 22.5775 22.0737H2.42244C2.82941 19.031 5.44569 16.6473 8.62399 16.6473Z" fill="currentColor"/>
  </symbol>
  <!--  -->
  <symbol width="25" height="25" viewBox="0 0 25 25" fill="none" xmlns="http://www.w3.org/2000/svg" id="basket">
    <path d="M21.8341 16.5461H8.74115C8.5239 16.5465 8.31299 16.4786 8.14306 16.3538C7.97314 16.229 7.8543 16.0546 7.80607 15.8592L5.60148 7.00126C5.56923 6.87186 5.56904 6.73743 5.60091 6.60796C5.63279 6.47848 5.69592 6.35731 5.7856 6.25345C5.87527 6.14959 5.98919 6.06571 6.11888 6.00807C6.24856 5.95042 6.39067 5.92049 6.53463 5.9205H24.0406C24.1847 5.92023 24.327 5.94996 24.4569 6.00749C24.5869 6.06502 24.701 6.14886 24.7909 6.25276C24.8808 6.35665 24.9441 6.47792 24.9761 6.60752C25.0081 6.73713 25.0079 6.87172 24.9756 7.00126L22.7672 15.8592C22.7191 16.0543 22.6005 16.2285 22.431 16.3533C22.2614 16.4781 22.051 16.5461 21.8341 16.5461ZM9.50324 14.7802H21.072L22.8381 7.68821H7.7365L9.50324 14.7802Z" fill="currentColor"/>
    <path d="M10.6145 24.434C9.88887 24.434 9.17954 24.2355 8.57621 23.8637C7.97288 23.492 7.50263 22.9635 7.22495 22.3453C6.94727 21.727 6.87461 21.0467 7.01618 20.3903C7.15774 19.734 7.50716 19.1311 8.02025 18.6579C8.53334 18.1847 9.18706 17.8625 9.89874 17.7319C10.6104 17.6014 11.3481 17.6684 12.0185 17.9245C12.6889 18.1805 13.2619 18.6142 13.665 19.1706C14.0681 19.7271 14.2833 20.3812 14.2833 21.0504C14.2823 21.9475 13.8954 22.8076 13.2076 23.4419C12.5198 24.0763 11.5872 24.433 10.6145 24.434ZM10.6145 19.4334C10.2676 19.4334 9.92842 19.5283 9.63996 19.7061C9.35151 19.8839 9.1267 20.1365 8.99396 20.4321C8.86122 20.7277 8.82653 21.053 8.89426 21.3668C8.96198 21.6806 9.1291 21.9688 9.37446 22.195C9.61982 22.4212 9.93241 22.5753 10.2727 22.6376C10.613 22.7 10.9657 22.6678 11.2861 22.5453C11.6066 22.4228 11.8805 22.2154 12.0732 21.9493C12.2658 21.6832 12.3686 21.3704 12.3685 21.0504C12.368 20.6216 12.183 20.2105 11.8541 19.9073C11.5253 19.6042 11.0795 19.4337 10.6145 19.4334Z" fill="currentColor"/>
    <path d="M19.9601 24.434C19.2344 24.434 18.5251 24.2355 17.9218 23.8637C17.3185 23.492 16.8482 22.9635 16.5705 22.3453C16.2928 21.727 16.2202 21.0467 16.3618 20.3903C16.5033 19.734 16.8527 19.1311 17.3658 18.6579C17.8789 18.1847 18.5326 17.8625 19.2443 17.7319C19.956 17.6014 20.6937 17.6684 21.3641 17.9245C22.0344 18.1805 22.6074 18.6142 23.0106 19.1706C23.4137 19.7271 23.6289 20.3812 23.6289 21.0504C23.6279 21.9475 23.241 22.8076 22.5532 23.4419C21.8654 24.0763 20.9328 24.433 19.9601 24.434ZM19.9601 19.4334C19.6131 19.4334 19.274 19.5283 18.9855 19.7061C18.6971 19.8839 18.4723 20.1365 18.3395 20.4321C18.2068 20.7277 18.1721 21.053 18.2398 21.3668C18.3076 21.6806 18.4747 21.9688 18.72 22.195C18.9654 22.4212 19.278 22.5753 19.6183 22.6376C19.9586 22.7 20.3112 22.6678 20.6317 22.5453C20.9522 22.4228 21.2261 22.2154 21.4188 21.9493C21.6114 21.6832 21.7142 21.3704 21.714 21.0504C21.7135 20.6216 21.5286 20.2105 21.1997 19.9073C20.8709 19.6042 20.425 19.4337 19.9601 19.4334Z" fill="currentColor"/>
    <path d="M6.53466 7.68643C6.33369 7.68642 6.13783 7.62808 5.97481 7.51968C5.8118 7.41128 5.6899 7.25833 5.6264 7.08248L3.98539 2.53638H0.957413C0.703491 2.53638 0.45997 2.44335 0.28042 2.27777C0.10087 2.11218 0 1.88759 0 1.65341C0 1.41924 0.10087 1.19465 0.28042 1.02906C0.45997 0.863473 0.703491 0.770447 0.957413 0.770447H4.67856C4.87953 0.770464 5.07539 0.828803 5.23841 0.9372C5.40142 1.0456 5.52332 1.19855 5.58682 1.3744L7.44612 6.52445C7.49405 6.65716 7.5071 6.79848 7.48421 6.93676C7.46131 7.07504 7.40311 7.20633 7.31442 7.3198C7.22572 7.43327 7.10906 7.52569 6.97405 7.58943C6.83903 7.65317 6.68953 7.68642 6.53785 7.68643H6.53466Z" fill="currentColor"/>
  </symbol>
  <!--  -->
  <symbol xmlns="http://www.w3.org/2000/svg" width="24" height="24" viewBox="0 0 24 24" id="not-found">
    <path d="M12 2C6.48 2 2 6.48 2 12s4.48 10 10 10 10-4.48 10-10S17.52 2 12 2zm0 18c-4.42 0-8-3.58-8-8 0-1.85.63-3.55 1.69-4.9L16.9 18.31C15.55 19.37 13.85 20 12 20zm6.31-3.1L7.1 5.69C8.45 4.63 10.15 4 12 4c4.42 0 8 3.58 8 8 0 1.85-.63 3.55-1.69 4.9z"/>
  </symbol>
  <!--  -->
  <symbol xmlns="http://www.w3.org/2000/svg" class="icon icon-tabler icon-tabler-logout" width="22" height="22" viewBox="0 0 22 22" stroke-width="2" stroke="currentColor" fill="none" stroke-linecap="round" stroke-linejoin="round" id="logout">
    <path stroke="none" d="M0 0h24v24H0z"/>
    <path d="M14 8v-2a2 2 0 0 0 -2 -2h-7a2 2 0 0 0 -2 2v12a2 2 0 0 0 2 2h7a2 2 0 0 0 2 -2v-2" />
    <path d="M7 12h14l-3 -3m0 6l3 -3" />
  </symbol>
  <!--  -->
</svg>